<mxfile host="Electron" modified="2023-06-07T20:10:17.116Z" agent="Mozilla/5.0 (Windows NT 10.0; Win64; x64) AppleWebKit/537.36 (KHTML, like Gecko) draw.io/21.2.8 Chrome/112.0.5615.165 Electron/24.2.0 Safari/537.36" etag="xQXEg_6USgqmjKtIDKDi" version="21.2.8" type="device">
  <diagram name="‫עמוד-1‬" id="34bfZWkIVzq-DvCz99RQ">
    <mxGraphModel dx="1200" dy="763" grid="1" gridSize="10" guides="1" tooltips="1" connect="1" arrows="1" fold="1" page="1" pageScale="1" pageWidth="1654" pageHeight="2336" math="0" shadow="0">
      <root>
        <mxCell id="0" />
        <mxCell id="1" parent="0" />
        <mxCell id="goCMUvhpIHfgZ5BJ_XMX-2" value="Party" style="swimlane;fontStyle=0;childLayout=stackLayout;horizontal=1;startSize=30;horizontalStack=0;resizeParent=1;resizeParentMax=0;resizeLast=0;collapsible=1;marginBottom=0;whiteSpace=wrap;html=1;" parent="1" vertex="1">
          <mxGeometry x="530" y="200" width="140" height="210" as="geometry" />
        </mxCell>
        <mxCell id="goCMUvhpIHfgZ5BJ_XMX-3" value="Party Number" style="text;strokeColor=none;fillColor=none;align=left;verticalAlign=middle;spacingLeft=4;spacingRight=4;overflow=hidden;points=[[0,0.5],[1,0.5]];portConstraint=eastwest;rotatable=0;whiteSpace=wrap;html=1;" parent="goCMUvhpIHfgZ5BJ_XMX-2" vertex="1">
          <mxGeometry y="30" width="140" height="30" as="geometry" />
        </mxCell>
        <mxCell id="goCMUvhpIHfgZ5BJ_XMX-4" value="Party name" style="text;strokeColor=none;fillColor=none;align=left;verticalAlign=middle;spacingLeft=4;spacingRight=4;overflow=hidden;points=[[0,0.5],[1,0.5]];portConstraint=eastwest;rotatable=0;whiteSpace=wrap;html=1;" parent="goCMUvhpIHfgZ5BJ_XMX-2" vertex="1">
          <mxGeometry y="60" width="140" height="30" as="geometry" />
        </mxCell>
        <mxCell id="goCMUvhpIHfgZ5BJ_XMX-5" value="Adress" style="text;strokeColor=none;fillColor=none;align=left;verticalAlign=middle;spacingLeft=4;spacingRight=4;overflow=hidden;points=[[0,0.5],[1,0.5]];portConstraint=eastwest;rotatable=0;whiteSpace=wrap;html=1;" parent="goCMUvhpIHfgZ5BJ_XMX-2" vertex="1">
          <mxGeometry y="90" width="140" height="30" as="geometry" />
        </mxCell>
        <mxCell id="goCMUvhpIHfgZ5BJ_XMX-6" value="" style="endArrow=none;html=1;rounded=0;" parent="goCMUvhpIHfgZ5BJ_XMX-2" edge="1">
          <mxGeometry width="50" height="50" relative="1" as="geometry">
            <mxPoint x="5" y="50" as="sourcePoint" />
            <mxPoint x="75" y="50" as="targetPoint" />
          </mxGeometry>
        </mxCell>
        <mxCell id="goCMUvhpIHfgZ5BJ_XMX-7" value="BuildingNumber&amp;nbsp; &amp;nbsp; &amp;nbsp; &amp;nbsp; &amp;nbsp; &amp;nbsp; &amp;nbsp;" style="text;html=1;strokeColor=none;fillColor=none;align=center;verticalAlign=middle;whiteSpace=wrap;rounded=0;" parent="goCMUvhpIHfgZ5BJ_XMX-2" vertex="1">
          <mxGeometry y="120" width="140" height="30" as="geometry" />
        </mxCell>
        <mxCell id="goCMUvhpIHfgZ5BJ_XMX-11" value="fromDate&amp;nbsp; &amp;nbsp; &amp;nbsp; &amp;nbsp; &amp;nbsp; &amp;nbsp; &amp;nbsp; &amp;nbsp; &amp;nbsp; &amp;nbsp; &amp;nbsp; &amp;nbsp;&amp;nbsp;" style="text;html=1;strokeColor=none;fillColor=none;align=center;verticalAlign=middle;whiteSpace=wrap;rounded=0;" parent="goCMUvhpIHfgZ5BJ_XMX-2" vertex="1">
          <mxGeometry y="150" width="140" height="30" as="geometry" />
        </mxCell>
        <mxCell id="goCMUvhpIHfgZ5BJ_XMX-12" value="ToDate&amp;nbsp; &amp;nbsp; &amp;nbsp; &amp;nbsp; &amp;nbsp; &amp;nbsp; &amp;nbsp; &amp;nbsp; &amp;nbsp; &amp;nbsp; &amp;nbsp; &amp;nbsp; &amp;nbsp; &amp;nbsp;&amp;nbsp;" style="text;html=1;strokeColor=none;fillColor=none;align=center;verticalAlign=middle;whiteSpace=wrap;rounded=0;" parent="goCMUvhpIHfgZ5BJ_XMX-2" vertex="1">
          <mxGeometry y="180" width="140" height="30" as="geometry" />
        </mxCell>
        <mxCell id="goCMUvhpIHfgZ5BJ_XMX-13" value="Area" style="swimlane;fontStyle=0;childLayout=stackLayout;horizontal=1;startSize=30;horizontalStack=0;resizeParent=1;resizeParentMax=0;resizeLast=0;collapsible=1;marginBottom=0;whiteSpace=wrap;html=1;" parent="1" vertex="1">
          <mxGeometry x="160" y="250" width="140" height="210" as="geometry" />
        </mxCell>
        <mxCell id="goCMUvhpIHfgZ5BJ_XMX-14" value="unigeName" style="text;strokeColor=none;fillColor=none;align=left;verticalAlign=middle;spacingLeft=4;spacingRight=4;overflow=hidden;points=[[0,0.5],[1,0.5]];portConstraint=eastwest;rotatable=0;whiteSpace=wrap;html=1;" parent="goCMUvhpIHfgZ5BJ_XMX-13" vertex="1">
          <mxGeometry y="30" width="140" height="30" as="geometry" />
        </mxCell>
        <mxCell id="goCMUvhpIHfgZ5BJ_XMX-15" value="crditPrice" style="text;strokeColor=none;fillColor=none;align=left;verticalAlign=middle;spacingLeft=4;spacingRight=4;overflow=hidden;points=[[0,0.5],[1,0.5]];portConstraint=eastwest;rotatable=0;whiteSpace=wrap;html=1;" parent="goCMUvhpIHfgZ5BJ_XMX-13" vertex="1">
          <mxGeometry y="60" width="140" height="30" as="geometry" />
        </mxCell>
        <mxCell id="goCMUvhpIHfgZ5BJ_XMX-16" value="size" style="text;strokeColor=none;fillColor=none;align=left;verticalAlign=middle;spacingLeft=4;spacingRight=4;overflow=hidden;points=[[0,0.5],[1,0.5]];portConstraint=eastwest;rotatable=0;whiteSpace=wrap;html=1;" parent="goCMUvhpIHfgZ5BJ_XMX-13" vertex="1">
          <mxGeometry y="90" width="140" height="30" as="geometry" />
        </mxCell>
        <mxCell id="goCMUvhpIHfgZ5BJ_XMX-17" value="MaxNumberCrdit&amp;nbsp; &amp;nbsp; &amp;nbsp; &amp;nbsp; &amp;nbsp; &amp;nbsp; &amp;nbsp; &amp;nbsp;&amp;nbsp;" style="text;html=1;strokeColor=none;fillColor=none;align=center;verticalAlign=middle;whiteSpace=wrap;rounded=0;" parent="goCMUvhpIHfgZ5BJ_XMX-13" vertex="1">
          <mxGeometry y="120" width="140" height="30" as="geometry" />
        </mxCell>
        <mxCell id="goCMUvhpIHfgZ5BJ_XMX-18" value="MaxPrictes&amp;nbsp; &amp;nbsp; &amp;nbsp; &amp;nbsp; &amp;nbsp; &amp;nbsp; &amp;nbsp; &amp;nbsp; &amp;nbsp; &amp;nbsp;&amp;nbsp;" style="text;html=1;strokeColor=none;fillColor=none;align=center;verticalAlign=middle;whiteSpace=wrap;rounded=0;" parent="goCMUvhpIHfgZ5BJ_XMX-13" vertex="1">
          <mxGeometry y="150" width="140" height="30" as="geometry" />
        </mxCell>
        <mxCell id="goCMUvhpIHfgZ5BJ_XMX-21" value="AdminName&amp;nbsp; &amp;nbsp; &amp;nbsp; &amp;nbsp; &amp;nbsp; &amp;nbsp; &amp;nbsp; &amp;nbsp; &amp;nbsp; &amp;nbsp;" style="text;html=1;strokeColor=none;fillColor=none;align=center;verticalAlign=middle;whiteSpace=wrap;rounded=0;" parent="goCMUvhpIHfgZ5BJ_XMX-13" vertex="1">
          <mxGeometry y="180" width="140" height="30" as="geometry" />
        </mxCell>
        <mxCell id="goCMUvhpIHfgZ5BJ_XMX-22" value="" style="endArrow=none;html=1;rounded=0;exitX=0.048;exitY=-0.189;exitDx=0;exitDy=0;exitPerimeter=0;" parent="goCMUvhpIHfgZ5BJ_XMX-13" source="goCMUvhpIHfgZ5BJ_XMX-15" edge="1">
          <mxGeometry width="50" height="50" relative="1" as="geometry">
            <mxPoint x="-70" y="90" as="sourcePoint" />
            <mxPoint x="60" y="54" as="targetPoint" />
          </mxGeometry>
        </mxCell>
        <mxCell id="goCMUvhpIHfgZ5BJ_XMX-24" value="concert square" style="swimlane;fontStyle=0;childLayout=stackLayout;horizontal=1;startSize=30;horizontalStack=0;resizeParent=1;resizeParentMax=0;resizeLast=0;collapsible=1;marginBottom=0;whiteSpace=wrap;html=1;" parent="1" vertex="1">
          <mxGeometry x="150" y="615" width="140" height="60" as="geometry" />
        </mxCell>
        <mxCell id="goCMUvhpIHfgZ5BJ_XMX-25" value="TypeMusic" style="text;strokeColor=none;fillColor=none;align=left;verticalAlign=middle;spacingLeft=4;spacingRight=4;overflow=hidden;points=[[0,0.5],[1,0.5]];portConstraint=eastwest;rotatable=0;whiteSpace=wrap;html=1;" parent="goCMUvhpIHfgZ5BJ_XMX-24" vertex="1">
          <mxGeometry y="30" width="140" height="30" as="geometry" />
        </mxCell>
        <mxCell id="-B7cMqeJj6rll6-kujTo-4" value="" style="endArrow=none;html=1;rounded=0;exitX=-0.024;exitY=0.733;exitDx=0;exitDy=0;exitPerimeter=0;" parent="goCMUvhpIHfgZ5BJ_XMX-24" source="goCMUvhpIHfgZ5BJ_XMX-25" edge="1">
          <mxGeometry width="50" height="50" relative="1" as="geometry">
            <mxPoint x="-60" y="95" as="sourcePoint" />
            <mxPoint x="70" y="52" as="targetPoint" />
          </mxGeometry>
        </mxCell>
        <mxCell id="goCMUvhpIHfgZ5BJ_XMX-28" value="ISA" style="triangle;whiteSpace=wrap;html=1;direction=south;" parent="1" vertex="1">
          <mxGeometry x="180" y="510" width="80" height="60" as="geometry" />
        </mxCell>
        <mxCell id="goCMUvhpIHfgZ5BJ_XMX-29" value="" style="endArrow=none;html=1;rounded=0;" parent="1" edge="1">
          <mxGeometry width="50" height="50" relative="1" as="geometry">
            <mxPoint x="210" y="510" as="sourcePoint" />
            <mxPoint x="210" y="460" as="targetPoint" />
          </mxGeometry>
        </mxCell>
        <mxCell id="goCMUvhpIHfgZ5BJ_XMX-30" value="" style="endArrow=none;html=1;rounded=0;entryX=1;entryY=0.5;entryDx=0;entryDy=0;exitX=0.5;exitY=0;exitDx=0;exitDy=0;" parent="1" source="goCMUvhpIHfgZ5BJ_XMX-24" target="goCMUvhpIHfgZ5BJ_XMX-28" edge="1">
          <mxGeometry width="50" height="50" relative="1" as="geometry">
            <mxPoint x="220" y="600" as="sourcePoint" />
            <mxPoint x="210" y="570" as="targetPoint" />
          </mxGeometry>
        </mxCell>
        <mxCell id="goCMUvhpIHfgZ5BJ_XMX-31" value="Market" style="swimlane;fontStyle=0;childLayout=stackLayout;horizontal=1;startSize=30;horizontalStack=0;resizeParent=1;resizeParentMax=0;resizeLast=0;collapsible=1;marginBottom=0;whiteSpace=wrap;html=1;" parent="1" vertex="1">
          <mxGeometry x="530" y="20" width="140" height="150" as="geometry" />
        </mxCell>
        <mxCell id="goCMUvhpIHfgZ5BJ_XMX-34" value="Type:{שתיה,מזון,מוצרים נלווים.,}" style="text;strokeColor=none;fillColor=none;align=left;verticalAlign=middle;spacingLeft=4;spacingRight=4;overflow=hidden;points=[[0,0.5],[1,0.5]];portConstraint=eastwest;rotatable=0;whiteSpace=wrap;html=1;" parent="goCMUvhpIHfgZ5BJ_XMX-31" vertex="1">
          <mxGeometry y="30" width="140" height="30" as="geometry" />
        </mxCell>
        <mxCell id="goCMUvhpIHfgZ5BJ_XMX-35" value="sitting/standing&amp;nbsp; &amp;nbsp; &amp;nbsp; &amp;nbsp; &amp;nbsp; &amp;nbsp; &amp;nbsp; &amp;nbsp;" style="text;html=1;strokeColor=none;fillColor=none;align=center;verticalAlign=middle;whiteSpace=wrap;rounded=0;" parent="goCMUvhpIHfgZ5BJ_XMX-31" vertex="1">
          <mxGeometry y="60" width="140" height="30" as="geometry" />
        </mxCell>
        <mxCell id="goCMUvhpIHfgZ5BJ_XMX-36" value="CiliaOrnot&amp;nbsp; &amp;nbsp; &amp;nbsp; &amp;nbsp; &amp;nbsp; &amp;nbsp; &amp;nbsp; &amp;nbsp; &amp;nbsp; &amp;nbsp; &amp;nbsp; &amp;nbsp; &amp;nbsp;" style="text;html=1;strokeColor=none;fillColor=none;align=center;verticalAlign=middle;whiteSpace=wrap;rounded=0;" parent="goCMUvhpIHfgZ5BJ_XMX-31" vertex="1">
          <mxGeometry y="90" width="140" height="30" as="geometry" />
        </mxCell>
        <mxCell id="-B7cMqeJj6rll6-kujTo-1" value="idMarket&amp;nbsp; &amp;nbsp; &amp;nbsp; &amp;nbsp; &amp;nbsp; &amp;nbsp; &amp;nbsp; &amp;nbsp; &amp;nbsp; &amp;nbsp; &amp;nbsp; &amp;nbsp; &amp;nbsp;&lt;br&gt;&lt;br&gt;" style="text;html=1;strokeColor=none;fillColor=none;align=center;verticalAlign=middle;whiteSpace=wrap;rounded=0;" parent="goCMUvhpIHfgZ5BJ_XMX-31" vertex="1">
          <mxGeometry y="120" width="140" height="30" as="geometry" />
        </mxCell>
        <mxCell id="-B7cMqeJj6rll6-kujTo-3" value="" style="endArrow=none;html=1;rounded=0;exitX=0;exitY=0.5;exitDx=0;exitDy=0;" parent="goCMUvhpIHfgZ5BJ_XMX-31" source="-B7cMqeJj6rll6-kujTo-1" edge="1">
          <mxGeometry width="50" height="50" relative="1" as="geometry">
            <mxPoint x="-80" y="190" as="sourcePoint" />
            <mxPoint x="50" y="135" as="targetPoint" />
          </mxGeometry>
        </mxCell>
        <mxCell id="goCMUvhpIHfgZ5BJ_XMX-41" value="" style="endArrow=none;html=1;rounded=0;entryX=0.433;entryY=1.056;entryDx=0;entryDy=0;entryPerimeter=0;exitX=0;exitY=0.5;exitDx=0;exitDy=0;" parent="1" source="goCMUvhpIHfgZ5BJ_XMX-28" target="goCMUvhpIHfgZ5BJ_XMX-21" edge="1">
          <mxGeometry width="50" height="50" relative="1" as="geometry">
            <mxPoint x="220" y="510" as="sourcePoint" />
            <mxPoint x="70" y="280.71067811865476" as="targetPoint" />
          </mxGeometry>
        </mxCell>
        <mxCell id="goCMUvhpIHfgZ5BJ_XMX-42" value="&lt;blockquote style=&quot;margin: 0 0 0 40px; border: none; padding: 0px;&quot;&gt;Artist&lt;/blockquote&gt;" style="swimlane;fontStyle=0;childLayout=stackLayout;horizontal=1;startSize=30;horizontalStack=0;resizeParent=1;resizeParentMax=0;resizeLast=0;collapsible=1;marginBottom=0;whiteSpace=wrap;html=1;" parent="1" vertex="1">
          <mxGeometry x="380" y="810" width="160" height="120" as="geometry" />
        </mxCell>
        <mxCell id="goCMUvhpIHfgZ5BJ_XMX-43" value="idArtist" style="text;strokeColor=none;fillColor=none;align=left;verticalAlign=middle;spacingLeft=4;spacingRight=4;overflow=hidden;points=[[0,0.5],[1,0.5]];portConstraint=eastwest;rotatable=0;whiteSpace=wrap;html=1;" parent="goCMUvhpIHfgZ5BJ_XMX-42" vertex="1">
          <mxGeometry y="30" width="160" height="30" as="geometry" />
        </mxCell>
        <mxCell id="goCMUvhpIHfgZ5BJ_XMX-53" value="grade&amp;nbsp; &amp;nbsp; &amp;nbsp; &amp;nbsp; &amp;nbsp; &amp;nbsp; &amp;nbsp; &amp;nbsp; &amp;nbsp; &amp;nbsp; &amp;nbsp; &amp;nbsp; &amp;nbsp; &amp;nbsp; &amp;nbsp;&amp;nbsp;&lt;br&gt;&lt;br&gt;" style="text;html=1;strokeColor=none;fillColor=none;align=center;verticalAlign=middle;whiteSpace=wrap;rounded=0;" parent="goCMUvhpIHfgZ5BJ_XMX-42" vertex="1">
          <mxGeometry y="60" width="160" height="30" as="geometry" />
        </mxCell>
        <mxCell id="goCMUvhpIHfgZ5BJ_XMX-66" value="" style="endArrow=none;html=1;rounded=0;" parent="goCMUvhpIHfgZ5BJ_XMX-42" edge="1">
          <mxGeometry width="50" height="50" relative="1" as="geometry">
            <mxPoint x="10" y="56" as="sourcePoint" />
            <mxPoint x="60" y="56" as="targetPoint" />
          </mxGeometry>
        </mxCell>
        <mxCell id="-B7cMqeJj6rll6-kujTo-5" value="TypeMusic:{רוק, פופ, מזרחי, קאנטרי, או&lt;br style=&quot;border-color: var(--border-color); text-align: left;&quot;&gt;&lt;span style=&quot;text-align: left;&quot;&gt;אחר}&lt;br&gt;&lt;br&gt;&lt;/span&gt;" style="text;html=1;strokeColor=none;fillColor=none;align=center;verticalAlign=middle;whiteSpace=wrap;rounded=0;" parent="goCMUvhpIHfgZ5BJ_XMX-42" vertex="1">
          <mxGeometry y="90" width="160" height="30" as="geometry" />
        </mxCell>
        <mxCell id="goCMUvhpIHfgZ5BJ_XMX-49" value="Bands" style="swimlane;fontStyle=0;childLayout=stackLayout;horizontal=1;startSize=30;horizontalStack=0;resizeParent=1;resizeParentMax=0;resizeLast=0;collapsible=1;marginBottom=0;whiteSpace=wrap;html=1;" parent="1" vertex="1">
          <mxGeometry x="470" y="1120" width="140" height="90" as="geometry" />
        </mxCell>
        <mxCell id="goCMUvhpIHfgZ5BJ_XMX-50" value="NameBands" style="text;strokeColor=none;fillColor=none;align=left;verticalAlign=middle;spacingLeft=4;spacingRight=4;overflow=hidden;points=[[0,0.5],[1,0.5]];portConstraint=eastwest;rotatable=0;whiteSpace=wrap;html=1;" parent="goCMUvhpIHfgZ5BJ_XMX-49" vertex="1">
          <mxGeometry y="30" width="140" height="30" as="geometry" />
        </mxCell>
        <mxCell id="goCMUvhpIHfgZ5BJ_XMX-52" value="BandsNumber" style="text;strokeColor=none;fillColor=none;align=left;verticalAlign=middle;spacingLeft=4;spacingRight=4;overflow=hidden;points=[[0,0.5],[1,0.5]];portConstraint=eastwest;rotatable=0;whiteSpace=wrap;html=1;" parent="goCMUvhpIHfgZ5BJ_XMX-49" vertex="1">
          <mxGeometry y="60" width="140" height="30" as="geometry" />
        </mxCell>
        <mxCell id="goCMUvhpIHfgZ5BJ_XMX-67" value="" style="endArrow=none;html=1;rounded=0;entryX=0.457;entryY=-0.144;entryDx=0;entryDy=0;entryPerimeter=0;exitX=0.048;exitY=-0.144;exitDx=0;exitDy=0;exitPerimeter=0;" parent="goCMUvhpIHfgZ5BJ_XMX-49" edge="1">
          <mxGeometry width="50" height="50" relative="1" as="geometry">
            <mxPoint x="6.720000000000027" y="55.680000000000064" as="sourcePoint" />
            <mxPoint x="63.98000000000002" y="55.680000000000064" as="targetPoint" />
          </mxGeometry>
        </mxCell>
        <mxCell id="goCMUvhpIHfgZ5BJ_XMX-54" value="Agent" style="swimlane;fontStyle=0;childLayout=stackLayout;horizontal=1;startSize=30;horizontalStack=0;resizeParent=1;resizeParentMax=0;resizeLast=0;collapsible=1;marginBottom=0;whiteSpace=wrap;html=1;" parent="1" vertex="1">
          <mxGeometry x="910" y="810" width="140" height="120" as="geometry" />
        </mxCell>
        <mxCell id="goCMUvhpIHfgZ5BJ_XMX-55" value="NameAgent" style="text;strokeColor=none;fillColor=none;align=left;verticalAlign=middle;spacingLeft=4;spacingRight=4;overflow=hidden;points=[[0,0.5],[1,0.5]];portConstraint=eastwest;rotatable=0;whiteSpace=wrap;html=1;" parent="goCMUvhpIHfgZ5BJ_XMX-54" vertex="1">
          <mxGeometry y="30" width="140" height="30" as="geometry" />
        </mxCell>
        <mxCell id="goCMUvhpIHfgZ5BJ_XMX-56" value="email" style="text;strokeColor=none;fillColor=none;align=left;verticalAlign=middle;spacingLeft=4;spacingRight=4;overflow=hidden;points=[[0,0.5],[1,0.5]];portConstraint=eastwest;rotatable=0;whiteSpace=wrap;html=1;" parent="goCMUvhpIHfgZ5BJ_XMX-54" vertex="1">
          <mxGeometry y="60" width="140" height="30" as="geometry" />
        </mxCell>
        <mxCell id="goCMUvhpIHfgZ5BJ_XMX-68" value="" style="endArrow=none;html=1;rounded=0;exitX=0.057;exitY=-0.1;exitDx=0;exitDy=0;exitPerimeter=0;" parent="goCMUvhpIHfgZ5BJ_XMX-54" source="goCMUvhpIHfgZ5BJ_XMX-56" edge="1">
          <mxGeometry width="50" height="50" relative="1" as="geometry">
            <mxPoint x="-50" y="90" as="sourcePoint" />
            <mxPoint x="60" y="57" as="targetPoint" />
          </mxGeometry>
        </mxCell>
        <mxCell id="goCMUvhpIHfgZ5BJ_XMX-57" value="ArtistList" style="text;strokeColor=none;fillColor=none;align=left;verticalAlign=middle;spacingLeft=4;spacingRight=4;overflow=hidden;points=[[0,0.5],[1,0.5]];portConstraint=eastwest;rotatable=0;whiteSpace=wrap;html=1;" parent="goCMUvhpIHfgZ5BJ_XMX-54" vertex="1">
          <mxGeometry y="90" width="140" height="30" as="geometry" />
        </mxCell>
        <mxCell id="goCMUvhpIHfgZ5BJ_XMX-60" value="available" style="rhombus;whiteSpace=wrap;html=1;" parent="1" vertex="1">
          <mxGeometry x="180" y="750" width="80" height="80" as="geometry" />
        </mxCell>
        <mxCell id="goCMUvhpIHfgZ5BJ_XMX-69" value="belong to" style="rhombus;whiteSpace=wrap;html=1;" parent="1" vertex="1">
          <mxGeometry x="770" y="1000" width="80" height="80" as="geometry" />
        </mxCell>
        <mxCell id="goCMUvhpIHfgZ5BJ_XMX-70" value="" style="edgeStyle=entityRelationEdgeStyle;fontSize=12;html=1;endArrow=ERmandOne;rounded=0;exitX=1;exitY=0.5;exitDx=0;exitDy=0;entryX=0;entryY=0.5;entryDx=0;entryDy=0;" parent="1" source="goCMUvhpIHfgZ5BJ_XMX-69" target="goCMUvhpIHfgZ5BJ_XMX-55" edge="1">
          <mxGeometry width="100" height="100" relative="1" as="geometry">
            <mxPoint x="900" y="850" as="sourcePoint" />
            <mxPoint x="800" y="780" as="targetPoint" />
          </mxGeometry>
        </mxCell>
        <mxCell id="goCMUvhpIHfgZ5BJ_XMX-75" value="happen" style="rhombus;whiteSpace=wrap;html=1;" parent="1" vertex="1">
          <mxGeometry x="390" y="315" width="80" height="80" as="geometry" />
        </mxCell>
        <mxCell id="goCMUvhpIHfgZ5BJ_XMX-77" value="" style="edgeStyle=entityRelationEdgeStyle;fontSize=12;html=1;endArrow=ERoneToMany;rounded=0;exitX=1;exitY=0.5;exitDx=0;exitDy=0;entryX=0;entryY=0.5;entryDx=0;entryDy=0;" parent="1" source="goCMUvhpIHfgZ5BJ_XMX-75" target="goCMUvhpIHfgZ5BJ_XMX-3" edge="1">
          <mxGeometry width="100" height="100" relative="1" as="geometry">
            <mxPoint x="490" y="360" as="sourcePoint" />
            <mxPoint x="590" y="260" as="targetPoint" />
          </mxGeometry>
        </mxCell>
        <mxCell id="goCMUvhpIHfgZ5BJ_XMX-82" value="" style="edgeStyle=entityRelationEdgeStyle;fontSize=12;html=1;endArrow=ERmandOne;rounded=0;entryX=0;entryY=0.5;entryDx=0;entryDy=0;" parent="1" target="goCMUvhpIHfgZ5BJ_XMX-14" edge="1">
          <mxGeometry width="100" height="100" relative="1" as="geometry">
            <mxPoint x="100" y="160" as="sourcePoint" />
            <mxPoint x="360" y="160" as="targetPoint" />
          </mxGeometry>
        </mxCell>
        <mxCell id="goCMUvhpIHfgZ5BJ_XMX-83" value="" style="endArrow=none;html=1;rounded=0;" parent="1" edge="1">
          <mxGeometry width="50" height="50" relative="1" as="geometry">
            <mxPoint x="360" y="360" as="sourcePoint" />
            <mxPoint x="360" y="290" as="targetPoint" />
          </mxGeometry>
        </mxCell>
        <mxCell id="goCMUvhpIHfgZ5BJ_XMX-84" value="" style="endArrow=none;html=1;rounded=0;exitX=0;exitY=0.5;exitDx=0;exitDy=0;" parent="1" source="goCMUvhpIHfgZ5BJ_XMX-75" edge="1">
          <mxGeometry width="50" height="50" relative="1" as="geometry">
            <mxPoint x="330" y="400" as="sourcePoint" />
            <mxPoint x="360" y="355" as="targetPoint" />
          </mxGeometry>
        </mxCell>
        <mxCell id="goCMUvhpIHfgZ5BJ_XMX-85" value="" style="edgeStyle=entityRelationEdgeStyle;fontSize=12;html=1;endArrow=ERzeroToMany;endFill=1;rounded=0;exitX=1;exitY=0.5;exitDx=0;exitDy=0;entryX=0;entryY=0.233;entryDx=0;entryDy=0;entryPerimeter=0;" parent="1" target="goCMUvhpIHfgZ5BJ_XMX-34" edge="1">
          <mxGeometry width="100" height="100" relative="1" as="geometry">
            <mxPoint x="310" y="160" as="sourcePoint" />
            <mxPoint x="520" y="60" as="targetPoint" />
          </mxGeometry>
        </mxCell>
        <mxCell id="goCMUvhpIHfgZ5BJ_XMX-86" value="" style="endArrow=none;html=1;rounded=0;" parent="1" edge="1">
          <mxGeometry width="50" height="50" relative="1" as="geometry">
            <mxPoint x="130" y="160" as="sourcePoint" />
            <mxPoint x="230" y="160" as="targetPoint" />
          </mxGeometry>
        </mxCell>
        <mxCell id="goCMUvhpIHfgZ5BJ_XMX-95" value="" style="edgeStyle=entityRelationEdgeStyle;fontSize=12;html=1;endArrow=ERmandOne;rounded=0;entryX=0.5;entryY=0;entryDx=0;entryDy=0;" parent="1" target="goCMUvhpIHfgZ5BJ_XMX-54" edge="1">
          <mxGeometry width="100" height="100" relative="1" as="geometry">
            <mxPoint x="1051.7777506510417" y="600" as="sourcePoint" />
            <mxPoint x="1080" y="390" as="targetPoint" />
          </mxGeometry>
        </mxCell>
        <mxCell id="goCMUvhpIHfgZ5BJ_XMX-96" value="תאריך&lt;br/&gt;ההופעה, שעת ההתחלה, שעת סיום, הרכב ההופעה )מבחינת אומנים( ומחיר ההופעה של האמן" style="text;html=1;strokeColor=none;fillColor=none;align=center;verticalAlign=middle;whiteSpace=wrap;rounded=0;" parent="1" vertex="1">
          <mxGeometry x="892.5" y="520" width="165" height="20" as="geometry" />
        </mxCell>
        <mxCell id="0bZPoKOxgJVZyqrfnEEZ-1" value="" style="edgeStyle=entityRelationEdgeStyle;fontSize=12;html=1;endArrow=ERoneToMany;rounded=0;entryX=1;entryY=0.5;entryDx=0;entryDy=0;" parent="1" target="goCMUvhpIHfgZ5BJ_XMX-14" edge="1">
          <mxGeometry width="100" height="100" relative="1" as="geometry">
            <mxPoint x="330" y="295" as="sourcePoint" />
            <mxPoint x="460" y="200" as="targetPoint" />
          </mxGeometry>
        </mxCell>
        <mxCell id="0bZPoKOxgJVZyqrfnEEZ-4" value="Show" style="swimlane;fontStyle=0;childLayout=stackLayout;horizontal=1;startSize=30;horizontalStack=0;resizeParent=1;resizeParentMax=0;resizeLast=0;collapsible=1;marginBottom=0;whiteSpace=wrap;html=1;" parent="1" vertex="1">
          <mxGeometry x="660" y="660" width="140" height="180" as="geometry" />
        </mxCell>
        <mxCell id="0bZPoKOxgJVZyqrfnEEZ-5" value="showid" style="text;strokeColor=none;fillColor=none;align=left;verticalAlign=middle;spacingLeft=4;spacingRight=4;overflow=hidden;points=[[0,0.5],[1,0.5]];portConstraint=eastwest;rotatable=0;whiteSpace=wrap;html=1;" parent="0bZPoKOxgJVZyqrfnEEZ-4" vertex="1">
          <mxGeometry y="30" width="140" height="30" as="geometry" />
        </mxCell>
        <mxCell id="0bZPoKOxgJVZyqrfnEEZ-6" value="startdate" style="text;strokeColor=none;fillColor=none;align=left;verticalAlign=middle;spacingLeft=4;spacingRight=4;overflow=hidden;points=[[0,0.5],[1,0.5]];portConstraint=eastwest;rotatable=0;whiteSpace=wrap;html=1;" parent="0bZPoKOxgJVZyqrfnEEZ-4" vertex="1">
          <mxGeometry y="60" width="140" height="30" as="geometry" />
        </mxCell>
        <mxCell id="0bZPoKOxgJVZyqrfnEEZ-7" value="enddate" style="text;strokeColor=none;fillColor=none;align=left;verticalAlign=middle;spacingLeft=4;spacingRight=4;overflow=hidden;points=[[0,0.5],[1,0.5]];portConstraint=eastwest;rotatable=0;whiteSpace=wrap;html=1;" parent="0bZPoKOxgJVZyqrfnEEZ-4" vertex="1">
          <mxGeometry y="90" width="140" height="30" as="geometry" />
        </mxCell>
        <mxCell id="0bZPoKOxgJVZyqrfnEEZ-19" value="location&amp;nbsp; &amp;nbsp; &amp;nbsp; &amp;nbsp; &amp;nbsp; &amp;nbsp; &amp;nbsp; &amp;nbsp; &amp;nbsp; &amp;nbsp; &amp;nbsp; &amp;nbsp; &amp;nbsp; &amp;nbsp;&amp;nbsp;" style="text;html=1;strokeColor=none;fillColor=none;align=center;verticalAlign=middle;whiteSpace=wrap;rounded=0;" parent="0bZPoKOxgJVZyqrfnEEZ-4" vertex="1">
          <mxGeometry y="120" width="140" height="30" as="geometry" />
        </mxCell>
        <mxCell id="0bZPoKOxgJVZyqrfnEEZ-20" value="artistsalry&amp;nbsp; &amp;nbsp; &amp;nbsp; &amp;nbsp; &amp;nbsp; &amp;nbsp; &amp;nbsp; &amp;nbsp; &amp;nbsp; &amp;nbsp; &amp;nbsp; &amp;nbsp; &amp;nbsp;&amp;nbsp;" style="text;html=1;strokeColor=none;fillColor=none;align=center;verticalAlign=middle;whiteSpace=wrap;rounded=0;" parent="0bZPoKOxgJVZyqrfnEEZ-4" vertex="1">
          <mxGeometry y="150" width="140" height="30" as="geometry" />
        </mxCell>
        <mxCell id="0bZPoKOxgJVZyqrfnEEZ-23" value="" style="endArrow=none;html=1;rounded=0;entryX=0.326;entryY=-0.118;entryDx=0;entryDy=0;entryPerimeter=0;" parent="0bZPoKOxgJVZyqrfnEEZ-4" target="0bZPoKOxgJVZyqrfnEEZ-6" edge="1">
          <mxGeometry width="50" height="50" relative="1" as="geometry">
            <mxPoint y="56" as="sourcePoint" />
            <mxPoint x="40" y="61" as="targetPoint" />
          </mxGeometry>
        </mxCell>
        <mxCell id="0bZPoKOxgJVZyqrfnEEZ-9" value="Singer" style="swimlane;fontStyle=0;childLayout=stackLayout;horizontal=1;startSize=30;horizontalStack=0;resizeParent=1;resizeParentMax=0;resizeLast=0;collapsible=1;marginBottom=0;whiteSpace=wrap;html=1;" parent="1" vertex="1">
          <mxGeometry x="240" y="1135" width="140" height="90" as="geometry" />
        </mxCell>
        <mxCell id="0bZPoKOxgJVZyqrfnEEZ-10" value="gendr:{male,female,other}" style="text;strokeColor=none;fillColor=none;align=left;verticalAlign=middle;spacingLeft=4;spacingRight=4;overflow=hidden;points=[[0,0.5],[1,0.5]];portConstraint=eastwest;rotatable=0;whiteSpace=wrap;html=1;" parent="0bZPoKOxgJVZyqrfnEEZ-9" vertex="1">
          <mxGeometry y="30" width="140" height="30" as="geometry" />
        </mxCell>
        <mxCell id="0bZPoKOxgJVZyqrfnEEZ-12" value="NumberArtist&lt;br&gt;&lt;br&gt;" style="text;strokeColor=none;fillColor=none;align=left;verticalAlign=middle;spacingLeft=4;spacingRight=4;overflow=hidden;points=[[0,0.5],[1,0.5]];portConstraint=eastwest;rotatable=0;whiteSpace=wrap;html=1;" parent="0bZPoKOxgJVZyqrfnEEZ-9" vertex="1">
          <mxGeometry y="60" width="140" height="30" as="geometry" />
        </mxCell>
        <mxCell id="-B7cMqeJj6rll6-kujTo-6" value="" style="endArrow=none;html=1;rounded=0;exitX=0.004;exitY=0.724;exitDx=0;exitDy=0;exitPerimeter=0;" parent="0bZPoKOxgJVZyqrfnEEZ-9" source="0bZPoKOxgJVZyqrfnEEZ-12" edge="1">
          <mxGeometry width="50" height="50" relative="1" as="geometry">
            <mxPoint x="-90" y="95" as="sourcePoint" />
            <mxPoint x="70" y="82" as="targetPoint" />
          </mxGeometry>
        </mxCell>
        <mxCell id="0bZPoKOxgJVZyqrfnEEZ-13" value="ISA" style="triangle;whiteSpace=wrap;html=1;direction=south;" parent="1" vertex="1">
          <mxGeometry x="380" y="950" width="80" height="60" as="geometry" />
        </mxCell>
        <mxCell id="0bZPoKOxgJVZyqrfnEEZ-14" value="" style="endArrow=none;html=1;rounded=0;exitX=0.872;exitY=-0.017;exitDx=0;exitDy=0;exitPerimeter=0;entryX=1;entryY=0.5;entryDx=0;entryDy=0;" parent="1" source="0bZPoKOxgJVZyqrfnEEZ-9" target="0bZPoKOxgJVZyqrfnEEZ-13" edge="1">
          <mxGeometry width="50" height="50" relative="1" as="geometry">
            <mxPoint x="340" y="1100" as="sourcePoint" />
            <mxPoint x="390" y="1050" as="targetPoint" />
          </mxGeometry>
        </mxCell>
        <mxCell id="0bZPoKOxgJVZyqrfnEEZ-15" value="" style="endArrow=none;html=1;rounded=0;exitX=0;exitY=0;exitDx=0;exitDy=0;entryX=1;entryY=0.5;entryDx=0;entryDy=0;" parent="1" source="goCMUvhpIHfgZ5BJ_XMX-49" target="0bZPoKOxgJVZyqrfnEEZ-13" edge="1">
          <mxGeometry width="50" height="50" relative="1" as="geometry">
            <mxPoint x="360" y="1110" as="sourcePoint" />
            <mxPoint x="410" y="1060" as="targetPoint" />
          </mxGeometry>
        </mxCell>
        <mxCell id="0bZPoKOxgJVZyqrfnEEZ-16" value="" style="endArrow=none;html=1;rounded=0;exitX=0;exitY=0.5;exitDx=0;exitDy=0;entryX=0.25;entryY=1;entryDx=0;entryDy=0;" parent="1" source="0bZPoKOxgJVZyqrfnEEZ-13" target="-B7cMqeJj6rll6-kujTo-5" edge="1">
          <mxGeometry width="50" height="50" relative="1" as="geometry">
            <mxPoint x="390" y="950" as="sourcePoint" />
            <mxPoint x="420" y="940" as="targetPoint" />
          </mxGeometry>
        </mxCell>
        <mxCell id="0bZPoKOxgJVZyqrfnEEZ-22" value="include" style="shape=rhombus;double=1;perimeter=rhombusPerimeter;whiteSpace=wrap;html=1;align=center;" parent="1" vertex="1">
          <mxGeometry x="210" y="130" width="120" height="60" as="geometry" />
        </mxCell>
        <mxCell id="0bZPoKOxgJVZyqrfnEEZ-24" value="Mange" style="shape=associativeEntity;whiteSpace=wrap;html=1;align=center;" parent="1" vertex="1">
          <mxGeometry x="905" y="570" width="140" height="60" as="geometry" />
        </mxCell>
        <mxCell id="4B7bV3xadCpm8luRiKtJ-2" value="" style="edgeStyle=entityRelationEdgeStyle;fontSize=12;html=1;endArrow=ERoneToMany;rounded=0;entryX=1;entryY=0.5;entryDx=0;entryDy=0;" parent="1" target="0bZPoKOxgJVZyqrfnEEZ-5" edge="1">
          <mxGeometry width="100" height="100" relative="1" as="geometry">
            <mxPoint x="860" y="600" as="sourcePoint" />
            <mxPoint x="880" y="620" as="targetPoint" />
          </mxGeometry>
        </mxCell>
        <mxCell id="4B7bV3xadCpm8luRiKtJ-3" value="contain" style="rhombus;whiteSpace=wrap;html=1;" parent="1" vertex="1">
          <mxGeometry x="520" y="630" width="80" height="80" as="geometry" />
        </mxCell>
        <mxCell id="4B7bV3xadCpm8luRiKtJ-4" value="" style="edgeStyle=entityRelationEdgeStyle;fontSize=12;html=1;endArrow=ERoneToMany;rounded=0;entryX=0;entryY=0.5;entryDx=0;entryDy=0;" parent="1" target="0bZPoKOxgJVZyqrfnEEZ-5" edge="1">
          <mxGeometry width="100" height="100" relative="1" as="geometry">
            <mxPoint x="600" y="670" as="sourcePoint" />
            <mxPoint x="700" y="570" as="targetPoint" />
          </mxGeometry>
        </mxCell>
        <mxCell id="4B7bV3xadCpm8luRiKtJ-5" value="" style="edgeStyle=entityRelationEdgeStyle;fontSize=12;html=1;endArrow=ERoneToMany;rounded=0;" parent="1" target="goCMUvhpIHfgZ5BJ_XMX-43" edge="1">
          <mxGeometry width="100" height="100" relative="1" as="geometry">
            <mxPoint x="500" y="730" as="sourcePoint" />
            <mxPoint x="640" y="730" as="targetPoint" />
          </mxGeometry>
        </mxCell>
        <mxCell id="4B7bV3xadCpm8luRiKtJ-6" value="" style="endArrow=none;html=1;rounded=0;" parent="1" edge="1">
          <mxGeometry width="50" height="50" relative="1" as="geometry">
            <mxPoint x="500" y="730" as="sourcePoint" />
            <mxPoint x="500" y="670" as="targetPoint" />
          </mxGeometry>
        </mxCell>
        <mxCell id="4B7bV3xadCpm8luRiKtJ-7" value="" style="endArrow=none;html=1;rounded=0;entryX=0;entryY=0.5;entryDx=0;entryDy=0;" parent="1" target="4B7bV3xadCpm8luRiKtJ-3" edge="1">
          <mxGeometry width="50" height="50" relative="1" as="geometry">
            <mxPoint x="500" y="670" as="sourcePoint" />
            <mxPoint x="550" y="620" as="targetPoint" />
          </mxGeometry>
        </mxCell>
        <mxCell id="4B7bV3xadCpm8luRiKtJ-12" value="" style="endArrow=none;html=1;rounded=0;" parent="1" edge="1">
          <mxGeometry width="50" height="50" relative="1" as="geometry">
            <mxPoint x="360" y="940" as="sourcePoint" />
            <mxPoint x="830" y="940" as="targetPoint" />
          </mxGeometry>
        </mxCell>
        <mxCell id="4B7bV3xadCpm8luRiKtJ-13" value="" style="endArrow=none;html=1;rounded=0;" parent="1" edge="1">
          <mxGeometry width="50" height="50" relative="1" as="geometry">
            <mxPoint x="830" y="940" as="sourcePoint" />
            <mxPoint x="830" y="580" as="targetPoint" />
          </mxGeometry>
        </mxCell>
        <mxCell id="4B7bV3xadCpm8luRiKtJ-14" value="" style="endArrow=none;html=1;rounded=0;" parent="1" edge="1">
          <mxGeometry width="50" height="50" relative="1" as="geometry">
            <mxPoint x="360" y="580" as="sourcePoint" />
            <mxPoint x="830" y="580" as="targetPoint" />
          </mxGeometry>
        </mxCell>
        <mxCell id="4B7bV3xadCpm8luRiKtJ-15" value="" style="endArrow=none;html=1;rounded=0;" parent="1" edge="1">
          <mxGeometry width="50" height="50" relative="1" as="geometry">
            <mxPoint x="360" y="940" as="sourcePoint" />
            <mxPoint x="360" y="580" as="targetPoint" />
          </mxGeometry>
        </mxCell>
        <mxCell id="4B7bV3xadCpm8luRiKtJ-17" value="" style="edgeStyle=entityRelationEdgeStyle;fontSize=12;html=1;endArrow=ERoneToMany;rounded=0;entryX=1;entryY=0;entryDx=0;entryDy=0;" parent="1" target="goCMUvhpIHfgZ5BJ_XMX-53" edge="1">
          <mxGeometry width="100" height="100" relative="1" as="geometry">
            <mxPoint x="740" y="1040" as="sourcePoint" />
            <mxPoint x="870" y="940" as="targetPoint" />
          </mxGeometry>
        </mxCell>
        <mxCell id="4B7bV3xadCpm8luRiKtJ-18" value="" style="endArrow=none;html=1;rounded=0;entryX=0;entryY=0.5;entryDx=0;entryDy=0;" parent="1" target="0bZPoKOxgJVZyqrfnEEZ-24" edge="1">
          <mxGeometry width="50" height="50" relative="1" as="geometry">
            <mxPoint x="890" y="600" as="sourcePoint" />
            <mxPoint x="940" y="550" as="targetPoint" />
          </mxGeometry>
        </mxCell>
        <mxCell id="4B7bV3xadCpm8luRiKtJ-19" value="" style="edgeStyle=entityRelationEdgeStyle;fontSize=12;html=1;endArrow=ERoneToMany;rounded=0;" parent="1" target="goCMUvhpIHfgZ5BJ_XMX-25" edge="1">
          <mxGeometry width="100" height="100" relative="1" as="geometry">
            <mxPoint x="260" y="790" as="sourcePoint" />
            <mxPoint x="360" y="690" as="targetPoint" />
          </mxGeometry>
        </mxCell>
        <mxCell id="4B7bV3xadCpm8luRiKtJ-20" value="" style="edgeStyle=entityRelationEdgeStyle;fontSize=12;html=1;endArrow=ERmandOne;rounded=0;exitX=0.5;exitY=1;exitDx=0;exitDy=0;" parent="1" source="goCMUvhpIHfgZ5BJ_XMX-60" edge="1">
          <mxGeometry width="100" height="100" relative="1" as="geometry">
            <mxPoint x="260" y="920" as="sourcePoint" />
            <mxPoint x="360" y="800" as="targetPoint" />
          </mxGeometry>
        </mxCell>
        <mxCell id="1EgHy9HLvDguy03oD1R0-1" value="City" style="swimlane;fontStyle=0;childLayout=stackLayout;horizontal=1;startSize=30;horizontalStack=0;resizeParent=1;resizeParentMax=0;resizeLast=0;collapsible=1;marginBottom=0;whiteSpace=wrap;html=1;" vertex="1" parent="1">
          <mxGeometry x="940" y="240" width="140" height="120" as="geometry" />
        </mxCell>
        <mxCell id="1EgHy9HLvDguy03oD1R0-2" value="City code&amp;nbsp; &amp;nbsp; &amp;nbsp; &amp;nbsp; &amp;nbsp; &amp;nbsp; &amp;nbsp; &amp;nbsp; &amp;nbsp; &amp;nbsp; &amp;nbsp;&amp;nbsp;" style="text;strokeColor=none;fillColor=none;align=left;verticalAlign=middle;spacingLeft=4;spacingRight=4;overflow=hidden;points=[[0,0.5],[1,0.5]];portConstraint=eastwest;rotatable=0;whiteSpace=wrap;html=1;" vertex="1" parent="1EgHy9HLvDguy03oD1R0-1">
          <mxGeometry y="30" width="140" height="30" as="geometry" />
        </mxCell>
        <mxCell id="1EgHy9HLvDguy03oD1R0-3" value="CityName&amp;nbsp; &amp;nbsp; &amp;nbsp; &amp;nbsp; &amp;nbsp; &amp;nbsp; &amp;nbsp; &amp;nbsp; &amp;nbsp; &amp;nbsp; &amp;nbsp; &amp;nbsp;" style="text;strokeColor=none;fillColor=none;align=left;verticalAlign=middle;spacingLeft=4;spacingRight=4;overflow=hidden;points=[[0,0.5],[1,0.5]];portConstraint=eastwest;rotatable=0;whiteSpace=wrap;html=1;" vertex="1" parent="1EgHy9HLvDguy03oD1R0-1">
          <mxGeometry y="60" width="140" height="30" as="geometry" />
        </mxCell>
        <mxCell id="1EgHy9HLvDguy03oD1R0-4" value="CityArea" style="text;strokeColor=none;fillColor=none;align=left;verticalAlign=middle;spacingLeft=4;spacingRight=4;overflow=hidden;points=[[0,0.5],[1,0.5]];portConstraint=eastwest;rotatable=0;whiteSpace=wrap;html=1;" vertex="1" parent="1EgHy9HLvDguy03oD1R0-1">
          <mxGeometry y="90" width="140" height="30" as="geometry" />
        </mxCell>
        <mxCell id="1EgHy9HLvDguy03oD1R0-8" value="" style="endArrow=none;html=1;rounded=0;entryX=-0.005;entryY=0.833;entryDx=0;entryDy=0;entryPerimeter=0;" edge="1" parent="1EgHy9HLvDguy03oD1R0-1" target="1EgHy9HLvDguy03oD1R0-2">
          <mxGeometry width="50" height="50" relative="1" as="geometry">
            <mxPoint x="60" y="55" as="sourcePoint" />
            <mxPoint y="50" as="targetPoint" />
          </mxGeometry>
        </mxCell>
        <mxCell id="1EgHy9HLvDguy03oD1R0-5" value="PartyinCity" style="rhombus;whiteSpace=wrap;html=1;" vertex="1" parent="1">
          <mxGeometry x="760" y="265" width="80" height="80" as="geometry" />
        </mxCell>
        <mxCell id="1EgHy9HLvDguy03oD1R0-6" value="" style="edgeStyle=entityRelationEdgeStyle;fontSize=12;html=1;endArrow=ERoneToMany;rounded=0;entryX=1;entryY=0.5;entryDx=0;entryDy=0;exitX=0;exitY=0.5;exitDx=0;exitDy=0;" edge="1" parent="1" source="1EgHy9HLvDguy03oD1R0-5" target="goCMUvhpIHfgZ5BJ_XMX-3">
          <mxGeometry width="100" height="100" relative="1" as="geometry">
            <mxPoint x="710" y="450" as="sourcePoint" />
            <mxPoint x="810" y="350" as="targetPoint" />
          </mxGeometry>
        </mxCell>
        <mxCell id="1EgHy9HLvDguy03oD1R0-7" value="" style="edgeStyle=entityRelationEdgeStyle;fontSize=12;html=1;endArrow=ERoneToMany;rounded=0;entryX=0;entryY=0.5;entryDx=0;entryDy=0;exitX=1;exitY=0.5;exitDx=0;exitDy=0;" edge="1" parent="1" source="1EgHy9HLvDguy03oD1R0-5" target="1EgHy9HLvDguy03oD1R0-2">
          <mxGeometry width="100" height="100" relative="1" as="geometry">
            <mxPoint x="840" y="310" as="sourcePoint" />
            <mxPoint x="940" y="210" as="targetPoint" />
          </mxGeometry>
        </mxCell>
      </root>
    </mxGraphModel>
  </diagram>
</mxfile>
